<svg xmlns="http://www.w3.org/2000/svg" xmlns:xlink="http://www.w3.org/1999/xlink" width="116" zoomAndPan="magnify" viewBox="0 0 87 56.249996" height="75" preserveAspectRatio="xMidYMid meet" version="1.0"><defs><g/></defs><path fill="#f63a4c" d="M 56.085938 5.769531 C 52.722656 2.476562 47.359375 2.320312 43.8125 5.308594 C 43.652344 5.441406 43.460938 5.503906 43.269531 5.496094 C 43.078125 5.503906 42.886719 5.441406 42.730469 5.308594 C 39.179688 2.320312 33.816406 2.476562 30.457031 5.769531 C 27.105469 9.054688 26.949219 14.269531 29.984375 17.730469 C 30.019531 17.769531 30.046875 17.8125 30.074219 17.855469 L 43.269531 30.789062 L 56.464844 17.855469 C 56.492188 17.8125 56.523438 17.769531 56.558594 17.730469 C 59.589844 14.269531 59.433594 9.054688 56.085938 5.769531 Z M 57.917969 18.652344 C 61.375 14.535156 61.140625 8.4375 57.21875 4.589844 C 53.40625 0.859375 47.441406 0.546875 43.269531 3.648438 C 39.097656 0.546875 33.132812 0.859375 29.324219 4.589844 C 25.402344 8.4375 25.164062 14.535156 28.621094 18.652344 C 28.664062 18.738281 28.71875 18.816406 28.789062 18.886719 L 42.703125 32.523438 C 43.019531 32.835938 43.519531 32.835938 43.835938 32.523438 L 57.753906 18.886719 C 57.820312 18.816406 57.878906 18.738281 57.917969 18.652344 Z M 57.917969 18.652344 " fill-opacity="1" fill-rule="evenodd"/><path fill="#f63a4c" d="M 36.765625 6.464844 C 37.097656 6.464844 37.398438 6.667969 37.519531 6.980469 L 43.246094 21.445312 L 47.386719 10.285156 C 47.496094 9.996094 47.753906 9.792969 48.054688 9.757812 C 48.359375 9.722656 48.65625 9.859375 48.824219 10.117188 L 51.835938 14.679688 L 58.71875 14.679688 L 58.71875 16.324219 L 51.402344 16.324219 C 51.128906 16.324219 50.875 16.1875 50.726562 15.957031 L 48.351562 12.363281 L 44.03125 24.007812 C 43.914062 24.324219 43.613281 24.535156 43.277344 24.539062 C 42.941406 24.542969 42.640625 24.339844 42.515625 24.023438 L 36.765625 9.5 L 34.265625 15.808594 C 34.144531 16.121094 33.84375 16.324219 33.511719 16.324219 L 27.820312 16.324219 L 27.820312 14.679688 L 32.960938 14.679688 L 36.011719 6.980469 C 36.132812 6.667969 36.433594 6.464844 36.765625 6.464844 Z M 36.765625 6.464844 " fill-opacity="1" fill-rule="evenodd"/><g fill="#ffffff" fill-opacity="1"><g transform="translate(9.571908, 43.317448)"><g><path d="M 5.71875 -6.734375 C 5.925781 -6.628906 6.03125 -6.457031 6.03125 -6.21875 C 6.03125 -6.070312 5.976562 -5.929688 5.875 -5.796875 C 5.769531 -5.660156 5.628906 -5.59375 5.453125 -5.59375 C 5.335938 -5.59375 5.222656 -5.625 5.109375 -5.6875 C 4.785156 -5.832031 4.429688 -5.90625 4.046875 -5.90625 C 3.578125 -5.90625 3.164062 -5.804688 2.8125 -5.609375 C 2.457031 -5.410156 2.1875 -5.128906 2 -4.765625 C 1.8125 -4.410156 1.71875 -4 1.71875 -3.53125 C 1.71875 -2.738281 1.929688 -2.132812 2.359375 -1.71875 C 2.785156 -1.3125 3.347656 -1.109375 4.046875 -1.109375 C 4.453125 -1.109375 4.804688 -1.1875 5.109375 -1.34375 C 5.234375 -1.394531 5.34375 -1.421875 5.4375 -1.421875 C 5.613281 -1.421875 5.765625 -1.347656 5.890625 -1.203125 C 5.984375 -1.078125 6.03125 -0.9375 6.03125 -0.78125 C 6.03125 -0.675781 6.003906 -0.578125 5.953125 -0.484375 C 5.898438 -0.398438 5.820312 -0.335938 5.71875 -0.296875 C 5.195312 -0.0351562 4.640625 0.09375 4.046875 0.09375 C 3.378906 0.09375 2.769531 -0.0390625 2.21875 -0.3125 C 1.664062 -0.59375 1.222656 -1.003906 0.890625 -1.546875 C 0.566406 -2.097656 0.40625 -2.757812 0.40625 -3.53125 C 0.40625 -4.21875 0.5625 -4.832031 0.875 -5.375 C 1.1875 -5.925781 1.617188 -6.351562 2.171875 -6.65625 C 2.722656 -6.96875 3.347656 -7.125 4.046875 -7.125 C 4.640625 -7.125 5.195312 -6.992188 5.71875 -6.734375 Z M 5.71875 -6.734375 "/></g></g></g><g fill="#ffffff" fill-opacity="1"><g transform="translate(15.909205, 43.317448)"><g><path d="M 7.265625 -3.53125 C 7.265625 -2.863281 7.113281 -2.253906 6.8125 -1.703125 C 6.519531 -1.148438 6.113281 -0.710938 5.59375 -0.390625 C 5.070312 -0.0664062 4.484375 0.09375 3.828125 0.09375 C 3.171875 0.09375 2.582031 -0.0664062 2.0625 -0.390625 C 1.539062 -0.710938 1.132812 -1.148438 0.84375 -1.703125 C 0.550781 -2.253906 0.40625 -2.863281 0.40625 -3.53125 C 0.40625 -4.207031 0.550781 -4.820312 0.84375 -5.375 C 1.132812 -5.925781 1.539062 -6.363281 2.0625 -6.6875 C 2.582031 -7.007812 3.171875 -7.171875 3.828125 -7.171875 C 4.484375 -7.171875 5.070312 -7.007812 5.59375 -6.6875 C 6.113281 -6.363281 6.519531 -5.925781 6.8125 -5.375 C 7.113281 -4.820312 7.265625 -4.207031 7.265625 -3.53125 Z M 5.953125 -3.53125 C 5.953125 -3.988281 5.859375 -4.398438 5.671875 -4.765625 C 5.492188 -5.128906 5.242188 -5.421875 4.921875 -5.640625 C 4.597656 -5.859375 4.234375 -5.96875 3.828125 -5.96875 C 3.421875 -5.96875 3.054688 -5.859375 2.734375 -5.640625 C 2.410156 -5.429688 2.160156 -5.140625 1.984375 -4.765625 C 1.804688 -4.398438 1.71875 -3.988281 1.71875 -3.53125 C 1.71875 -3.082031 1.804688 -2.671875 1.984375 -2.296875 C 2.160156 -1.929688 2.410156 -1.640625 2.734375 -1.421875 C 3.054688 -1.210938 3.421875 -1.109375 3.828125 -1.109375 C 4.234375 -1.109375 4.597656 -1.21875 4.921875 -1.4375 C 5.242188 -1.65625 5.492188 -1.945312 5.671875 -2.3125 C 5.859375 -2.675781 5.953125 -3.082031 5.953125 -3.53125 Z M 5.953125 -3.53125 "/></g></g></g><g fill="#ffffff" fill-opacity="1"><g transform="translate(23.580672, 43.317448)"><g><path d="M 3.796875 -7.078125 C 4.421875 -7.078125 4.960938 -6.921875 5.421875 -6.609375 C 5.878906 -6.296875 6.226562 -5.867188 6.46875 -5.328125 C 6.707031 -4.796875 6.828125 -4.195312 6.828125 -3.53125 C 6.828125 -2.875 6.707031 -2.273438 6.46875 -1.734375 C 6.226562 -1.203125 5.878906 -0.78125 5.421875 -0.46875 C 4.960938 -0.15625 4.421875 0 3.796875 0 L 1.375 0 C 1.195312 0 1.050781 -0.0546875 0.9375 -0.171875 C 0.820312 -0.296875 0.765625 -0.441406 0.765625 -0.609375 L 0.765625 -6.453125 C 0.765625 -6.628906 0.820312 -6.773438 0.9375 -6.890625 C 1.050781 -7.015625 1.195312 -7.078125 1.375 -7.078125 Z M 3.6875 -1.15625 C 4.289062 -1.15625 4.742188 -1.378906 5.046875 -1.828125 C 5.359375 -2.273438 5.515625 -2.84375 5.515625 -3.53125 C 5.515625 -4.21875 5.359375 -4.785156 5.046875 -5.234375 C 4.742188 -5.679688 4.289062 -5.90625 3.6875 -5.90625 L 2.015625 -5.90625 L 2.015625 -1.15625 Z M 3.6875 -1.15625 "/></g></g></g><g fill="#ffffff" fill-opacity="1"><g transform="translate(30.807423, 43.317448)"><g><path d="M 4.765625 -1.15625 C 4.941406 -1.15625 5.085938 -1.097656 5.203125 -0.984375 C 5.316406 -0.867188 5.375 -0.734375 5.375 -0.578125 C 5.375 -0.410156 5.316406 -0.269531 5.203125 -0.15625 C 5.085938 -0.0507812 4.941406 0 4.765625 0 L 1.375 0 C 1.195312 0 1.050781 -0.0546875 0.9375 -0.171875 C 0.820312 -0.296875 0.765625 -0.441406 0.765625 -0.609375 L 0.765625 -6.453125 C 0.765625 -6.628906 0.820312 -6.773438 0.9375 -6.890625 C 1.050781 -7.015625 1.195312 -7.078125 1.375 -7.078125 L 4.765625 -7.078125 C 4.941406 -7.078125 5.085938 -7.019531 5.203125 -6.90625 C 5.316406 -6.800781 5.375 -6.660156 5.375 -6.484375 C 5.375 -6.316406 5.316406 -6.175781 5.203125 -6.0625 C 5.085938 -5.957031 4.941406 -5.90625 4.765625 -5.90625 L 2.015625 -5.90625 L 2.015625 -4.203125 L 4.3125 -4.203125 C 4.476562 -4.203125 4.617188 -4.144531 4.734375 -4.03125 C 4.859375 -3.914062 4.921875 -3.769531 4.921875 -3.59375 C 4.921875 -3.425781 4.863281 -3.289062 4.75 -3.1875 C 4.632812 -3.082031 4.488281 -3.03125 4.3125 -3.03125 L 2.015625 -3.03125 L 2.015625 -1.15625 Z M 4.765625 -1.15625 "/></g></g></g><g fill="#ffffff" fill-opacity="1"><g transform="translate(36.588819, 43.317448)"><g><path d="M 6.3125 -0.984375 C 6.394531 -0.929688 6.460938 -0.859375 6.515625 -0.765625 C 6.566406 -0.679688 6.59375 -0.59375 6.59375 -0.5 C 6.59375 -0.382812 6.550781 -0.273438 6.46875 -0.171875 C 6.363281 -0.046875 6.207031 0.015625 6 0.015625 C 5.84375 0.015625 5.695312 -0.0195312 5.5625 -0.09375 C 5.070312 -0.375 4.828125 -0.941406 4.828125 -1.796875 C 4.828125 -2.035156 4.75 -2.222656 4.59375 -2.359375 C 4.4375 -2.503906 4.207031 -2.578125 3.90625 -2.578125 L 2.015625 -2.578125 L 2.015625 -0.609375 C 2.015625 -0.429688 1.96875 -0.285156 1.875 -0.171875 C 1.78125 -0.0546875 1.648438 0 1.484375 0 C 1.285156 0 1.113281 -0.0546875 0.96875 -0.171875 C 0.832031 -0.296875 0.765625 -0.441406 0.765625 -0.609375 L 0.765625 -6.453125 C 0.765625 -6.628906 0.820312 -6.773438 0.9375 -6.890625 C 1.050781 -7.015625 1.195312 -7.078125 1.375 -7.078125 L 4.28125 -7.078125 C 4.632812 -7.078125 4.960938 -6.984375 5.265625 -6.796875 C 5.578125 -6.609375 5.828125 -6.347656 6.015625 -6.015625 C 6.203125 -5.679688 6.296875 -5.3125 6.296875 -4.90625 C 6.296875 -4.5625 6.203125 -4.226562 6.015625 -3.90625 C 5.835938 -3.59375 5.601562 -3.34375 5.3125 -3.15625 C 5.738281 -2.851562 5.972656 -2.457031 6.015625 -1.96875 C 6.035156 -1.851562 6.046875 -1.742188 6.046875 -1.640625 C 6.066406 -1.429688 6.09375 -1.28125 6.125 -1.1875 C 6.15625 -1.101562 6.21875 -1.035156 6.3125 -0.984375 Z M 4.234375 -3.625 C 4.359375 -3.625 4.476562 -3.679688 4.59375 -3.796875 C 4.707031 -3.910156 4.800781 -4.0625 4.875 -4.25 C 4.945312 -4.445312 4.984375 -4.65625 4.984375 -4.875 C 4.984375 -5.0625 4.945312 -5.234375 4.875 -5.390625 C 4.800781 -5.546875 4.707031 -5.671875 4.59375 -5.765625 C 4.476562 -5.859375 4.359375 -5.90625 4.234375 -5.90625 L 2.015625 -5.90625 L 2.015625 -3.625 Z M 4.234375 -3.625 "/></g></g></g><g fill="#ffffff" fill-opacity="1"><g transform="translate(43.532566, 43.317448)"><g><path d="M 5.890625 -7.078125 C 6.078125 -7.078125 6.226562 -7.019531 6.34375 -6.90625 C 6.457031 -6.789062 6.515625 -6.640625 6.515625 -6.453125 L 6.515625 -0.609375 C 6.515625 -0.441406 6.453125 -0.296875 6.328125 -0.171875 C 6.203125 -0.0546875 6.046875 0 5.859375 0 C 5.691406 0 5.546875 -0.0546875 5.421875 -0.171875 C 5.304688 -0.296875 5.25 -0.441406 5.25 -0.609375 L 5.25 -2.96875 L 2.015625 -2.96875 L 2.015625 -0.609375 C 2.015625 -0.441406 1.953125 -0.296875 1.828125 -0.171875 C 1.703125 -0.0546875 1.554688 0 1.390625 0 C 1.203125 0 1.050781 -0.0546875 0.9375 -0.171875 C 0.820312 -0.296875 0.765625 -0.441406 0.765625 -0.609375 L 0.765625 -6.453125 C 0.765625 -6.628906 0.820312 -6.773438 0.9375 -6.890625 C 1.0625 -7.015625 1.21875 -7.078125 1.40625 -7.078125 C 1.570312 -7.078125 1.710938 -7.015625 1.828125 -6.890625 C 1.953125 -6.773438 2.015625 -6.628906 2.015625 -6.453125 L 2.015625 -4.140625 L 5.25 -4.140625 L 5.25 -6.453125 C 5.25 -6.628906 5.3125 -6.773438 5.4375 -6.890625 C 5.5625 -7.015625 5.710938 -7.078125 5.890625 -7.078125 Z M 5.890625 -7.078125 "/></g></g></g><g fill="#ffffff" fill-opacity="1"><g transform="translate(50.799748, 43.317448)"><g><path d="M 7.265625 -3.53125 C 7.265625 -2.863281 7.113281 -2.253906 6.8125 -1.703125 C 6.519531 -1.148438 6.113281 -0.710938 5.59375 -0.390625 C 5.070312 -0.0664062 4.484375 0.09375 3.828125 0.09375 C 3.171875 0.09375 2.582031 -0.0664062 2.0625 -0.390625 C 1.539062 -0.710938 1.132812 -1.148438 0.84375 -1.703125 C 0.550781 -2.253906 0.40625 -2.863281 0.40625 -3.53125 C 0.40625 -4.207031 0.550781 -4.820312 0.84375 -5.375 C 1.132812 -5.925781 1.539062 -6.363281 2.0625 -6.6875 C 2.582031 -7.007812 3.171875 -7.171875 3.828125 -7.171875 C 4.484375 -7.171875 5.070312 -7.007812 5.59375 -6.6875 C 6.113281 -6.363281 6.519531 -5.925781 6.8125 -5.375 C 7.113281 -4.820312 7.265625 -4.207031 7.265625 -3.53125 Z M 5.953125 -3.53125 C 5.953125 -3.988281 5.859375 -4.398438 5.671875 -4.765625 C 5.492188 -5.128906 5.242188 -5.421875 4.921875 -5.640625 C 4.597656 -5.859375 4.234375 -5.96875 3.828125 -5.96875 C 3.421875 -5.96875 3.054688 -5.859375 2.734375 -5.640625 C 2.410156 -5.429688 2.160156 -5.140625 1.984375 -4.765625 C 1.804688 -4.398438 1.71875 -3.988281 1.71875 -3.53125 C 1.71875 -3.082031 1.804688 -2.671875 1.984375 -2.296875 C 2.160156 -1.929688 2.410156 -1.640625 2.734375 -1.421875 C 3.054688 -1.210938 3.421875 -1.109375 3.828125 -1.109375 C 4.234375 -1.109375 4.597656 -1.21875 4.921875 -1.4375 C 5.242188 -1.65625 5.492188 -1.945312 5.671875 -2.3125 C 5.859375 -2.675781 5.953125 -3.082031 5.953125 -3.53125 Z M 5.953125 -3.53125 "/></g></g></g><g fill="#ffffff" fill-opacity="1"><g transform="translate(58.471216, 43.317448)"><g><path d="M 5.78125 -7.09375 C 5.957031 -7.09375 6.097656 -7.035156 6.203125 -6.921875 C 6.316406 -6.804688 6.375 -6.65625 6.375 -6.46875 L 6.375 -2.8125 C 6.375 -2.25 6.253906 -1.75 6.015625 -1.3125 C 5.773438 -0.882812 5.441406 -0.550781 5.015625 -0.3125 C 4.597656 -0.0703125 4.113281 0.046875 3.5625 0.046875 C 3.019531 0.046875 2.535156 -0.0703125 2.109375 -0.3125 C 1.679688 -0.550781 1.347656 -0.882812 1.109375 -1.3125 C 0.878906 -1.75 0.765625 -2.25 0.765625 -2.8125 L 0.765625 -6.46875 C 0.765625 -6.644531 0.820312 -6.789062 0.9375 -6.90625 C 1.0625 -7.03125 1.21875 -7.09375 1.40625 -7.09375 C 1.5625 -7.09375 1.703125 -7.03125 1.828125 -6.90625 C 1.953125 -6.789062 2.015625 -6.644531 2.015625 -6.46875 L 2.015625 -2.8125 C 2.015625 -2.488281 2.082031 -2.195312 2.21875 -1.9375 C 2.363281 -1.6875 2.554688 -1.492188 2.796875 -1.359375 C 3.035156 -1.222656 3.289062 -1.15625 3.5625 -1.15625 C 3.851562 -1.15625 4.125 -1.222656 4.375 -1.359375 C 4.632812 -1.492188 4.835938 -1.6875 4.984375 -1.9375 C 5.140625 -2.195312 5.21875 -2.488281 5.21875 -2.8125 L 5.21875 -6.46875 C 5.21875 -6.65625 5.265625 -6.804688 5.359375 -6.921875 C 5.460938 -7.035156 5.601562 -7.09375 5.78125 -7.09375 Z M 5.78125 -7.09375 "/></g></g></g><g fill="#ffffff" fill-opacity="1"><g transform="translate(65.59689, 43.317448)"><g><path d="M 3.03125 0.09375 C 2.550781 0.09375 2.117188 0.0351562 1.734375 -0.078125 C 1.359375 -0.203125 1.003906 -0.410156 0.671875 -0.703125 C 0.492188 -0.859375 0.40625 -1.035156 0.40625 -1.234375 C 0.40625 -1.390625 0.460938 -1.523438 0.578125 -1.640625 C 0.691406 -1.753906 0.828125 -1.8125 0.984375 -1.8125 C 1.117188 -1.8125 1.234375 -1.773438 1.328125 -1.703125 C 1.597656 -1.472656 1.859375 -1.304688 2.109375 -1.203125 C 2.367188 -1.109375 2.675781 -1.0625 3.03125 -1.0625 C 3.40625 -1.0625 3.726562 -1.144531 4 -1.3125 C 4.28125 -1.476562 4.421875 -1.6875 4.421875 -1.9375 C 4.421875 -2.238281 4.285156 -2.472656 4.015625 -2.640625 C 3.742188 -2.816406 3.316406 -2.953125 2.734375 -3.046875 C 1.253906 -3.253906 0.515625 -3.941406 0.515625 -5.109375 C 0.515625 -5.523438 0.625 -5.890625 0.84375 -6.203125 C 1.070312 -6.523438 1.375 -6.765625 1.75 -6.921875 C 2.132812 -7.085938 2.566406 -7.171875 3.046875 -7.171875 C 3.472656 -7.171875 3.867188 -7.109375 4.234375 -6.984375 C 4.609375 -6.859375 4.921875 -6.691406 5.171875 -6.484375 C 5.367188 -6.328125 5.46875 -6.144531 5.46875 -5.9375 C 5.46875 -5.789062 5.410156 -5.65625 5.296875 -5.53125 C 5.179688 -5.414062 5.046875 -5.359375 4.890625 -5.359375 C 4.785156 -5.359375 4.695312 -5.390625 4.625 -5.453125 C 4.445312 -5.585938 4.203125 -5.710938 3.890625 -5.828125 C 3.578125 -5.953125 3.296875 -6.015625 3.046875 -6.015625 C 2.617188 -6.015625 2.285156 -5.9375 2.046875 -5.78125 C 1.816406 -5.625 1.703125 -5.414062 1.703125 -5.15625 C 1.703125 -4.863281 1.820312 -4.644531 2.0625 -4.5 C 2.300781 -4.351562 2.675781 -4.234375 3.1875 -4.140625 C 3.769531 -4.035156 4.234375 -3.90625 4.578125 -3.75 C 4.929688 -3.59375 5.191406 -3.375 5.359375 -3.09375 C 5.535156 -2.820312 5.625 -2.460938 5.625 -2.015625 C 5.625 -1.585938 5.503906 -1.210938 5.265625 -0.890625 C 5.023438 -0.578125 4.707031 -0.332031 4.3125 -0.15625 C 3.914062 0.0078125 3.488281 0.09375 3.03125 0.09375 Z M 3.03125 0.09375 "/></g></g></g><g fill="#ffffff" fill-opacity="1"><g transform="translate(71.630967, 43.317448)"><g><path d="M 4.765625 -1.15625 C 4.941406 -1.15625 5.085938 -1.097656 5.203125 -0.984375 C 5.316406 -0.867188 5.375 -0.734375 5.375 -0.578125 C 5.375 -0.410156 5.316406 -0.269531 5.203125 -0.15625 C 5.085938 -0.0507812 4.941406 0 4.765625 0 L 1.375 0 C 1.195312 0 1.050781 -0.0546875 0.9375 -0.171875 C 0.820312 -0.296875 0.765625 -0.441406 0.765625 -0.609375 L 0.765625 -6.453125 C 0.765625 -6.628906 0.820312 -6.773438 0.9375 -6.890625 C 1.050781 -7.015625 1.195312 -7.078125 1.375 -7.078125 L 4.765625 -7.078125 C 4.941406 -7.078125 5.085938 -7.019531 5.203125 -6.90625 C 5.316406 -6.800781 5.375 -6.660156 5.375 -6.484375 C 5.375 -6.316406 5.316406 -6.175781 5.203125 -6.0625 C 5.085938 -5.957031 4.941406 -5.90625 4.765625 -5.90625 L 2.015625 -5.90625 L 2.015625 -4.203125 L 4.3125 -4.203125 C 4.476562 -4.203125 4.617188 -4.144531 4.734375 -4.03125 C 4.859375 -3.914062 4.921875 -3.769531 4.921875 -3.59375 C 4.921875 -3.425781 4.863281 -3.289062 4.75 -3.1875 C 4.632812 -3.082031 4.488281 -3.03125 4.3125 -3.03125 L 2.015625 -3.03125 L 2.015625 -1.15625 Z M 4.765625 -1.15625 "/></g></g></g><g fill="#f63a4c" fill-opacity="1"><g transform="translate(25.887695, 52.672717)"><g><path d="M 5.421875 -6.140625 C 5.566406 -6.054688 5.640625 -5.929688 5.640625 -5.765625 C 5.640625 -5.648438 5.601562 -5.546875 5.53125 -5.453125 C 5.457031 -5.359375 5.351562 -5.3125 5.21875 -5.3125 C 5.132812 -5.3125 5.050781 -5.332031 4.96875 -5.375 C 4.582031 -5.59375 4.164062 -5.703125 3.71875 -5.703125 C 3.257812 -5.703125 2.847656 -5.597656 2.484375 -5.390625 C 2.128906 -5.179688 1.851562 -4.890625 1.65625 -4.515625 C 1.457031 -4.148438 1.359375 -3.734375 1.359375 -3.265625 C 1.359375 -2.742188 1.457031 -2.296875 1.65625 -1.921875 C 1.863281 -1.554688 2.144531 -1.273438 2.5 -1.078125 C 2.863281 -0.878906 3.269531 -0.78125 3.71875 -0.78125 C 4.1875 -0.78125 4.601562 -0.894531 4.96875 -1.125 C 5.039062 -1.15625 5.125 -1.171875 5.21875 -1.171875 C 5.351562 -1.171875 5.460938 -1.117188 5.546875 -1.015625 C 5.617188 -0.921875 5.65625 -0.820312 5.65625 -0.71875 C 5.65625 -0.644531 5.632812 -0.570312 5.59375 -0.5 C 5.550781 -0.4375 5.492188 -0.390625 5.421875 -0.359375 C 5.179688 -0.222656 4.910156 -0.113281 4.609375 -0.03125 C 4.304688 0.0507812 4.007812 0.09375 3.71875 0.09375 C 3.125 0.09375 2.570312 -0.0351562 2.0625 -0.296875 C 1.550781 -0.566406 1.144531 -0.957031 0.84375 -1.46875 C 0.550781 -1.976562 0.40625 -2.578125 0.40625 -3.265625 C 0.40625 -3.890625 0.546875 -4.453125 0.828125 -4.953125 C 1.117188 -5.460938 1.515625 -5.859375 2.015625 -6.140625 C 2.523438 -6.429688 3.09375 -6.578125 3.71875 -6.578125 C 4.320312 -6.578125 4.890625 -6.429688 5.421875 -6.140625 Z M 5.421875 -6.140625 "/></g></g></g><g fill="#f63a4c" fill-opacity="1"><g transform="translate(33.123332, 52.672717)"><g><path d="M 4.375 -0.859375 C 4.5 -0.859375 4.601562 -0.816406 4.6875 -0.734375 C 4.769531 -0.660156 4.8125 -0.554688 4.8125 -0.421875 C 4.8125 -0.296875 4.769531 -0.191406 4.6875 -0.109375 C 4.601562 -0.0351562 4.5 0 4.375 0 L 1.21875 0 C 1.09375 0 0.984375 -0.0390625 0.890625 -0.125 C 0.804688 -0.21875 0.765625 -0.328125 0.765625 -0.453125 L 0.765625 -6.078125 C 0.765625 -6.203125 0.804688 -6.304688 0.890625 -6.390625 C 0.984375 -6.472656 1.097656 -6.515625 1.234375 -6.515625 C 1.359375 -6.515625 1.460938 -6.472656 1.546875 -6.390625 C 1.640625 -6.304688 1.6875 -6.203125 1.6875 -6.078125 L 1.6875 -0.859375 Z M 4.375 -0.859375 "/></g></g></g><g fill="#f63a4c" fill-opacity="1"><g transform="translate(39.53975, 52.672717)"><g><path d="M 1.6875 -0.453125 C 1.6875 -0.328125 1.640625 -0.21875 1.546875 -0.125 C 1.460938 -0.0390625 1.359375 0 1.234375 0 C 1.097656 0 0.984375 -0.0390625 0.890625 -0.125 C 0.804688 -0.21875 0.765625 -0.328125 0.765625 -0.453125 L 0.765625 -6.078125 C 0.765625 -6.203125 0.804688 -6.304688 0.890625 -6.390625 C 0.984375 -6.472656 1.097656 -6.515625 1.234375 -6.515625 C 1.359375 -6.515625 1.460938 -6.472656 1.546875 -6.390625 C 1.640625 -6.304688 1.6875 -6.203125 1.6875 -6.078125 Z M 1.6875 -0.453125 "/></g></g></g><g fill="#f63a4c" fill-opacity="1"><g transform="translate(43.302995, 52.672717)"><g><path d="M 5.640625 -6.515625 C 5.753906 -6.515625 5.847656 -6.472656 5.921875 -6.390625 C 6.003906 -6.316406 6.046875 -6.222656 6.046875 -6.109375 L 6.046875 -0.453125 C 6.046875 -0.328125 6.003906 -0.21875 5.921875 -0.125 C 5.835938 -0.0390625 5.726562 0 5.59375 0 C 5.53125 0 5.460938 -0.0078125 5.390625 -0.03125 C 5.328125 -0.0507812 5.28125 -0.0820312 5.25 -0.125 L 1.578125 -4.890625 L 1.578125 -0.40625 C 1.578125 -0.289062 1.535156 -0.191406 1.453125 -0.109375 C 1.378906 -0.0351562 1.285156 0 1.171875 0 C 1.054688 0 0.957031 -0.0351562 0.875 -0.109375 C 0.800781 -0.191406 0.765625 -0.289062 0.765625 -0.40625 L 0.765625 -6.078125 C 0.765625 -6.203125 0.804688 -6.304688 0.890625 -6.390625 C 0.984375 -6.472656 1.085938 -6.515625 1.203125 -6.515625 C 1.285156 -6.515625 1.359375 -6.5 1.421875 -6.46875 C 1.492188 -6.445312 1.546875 -6.410156 1.578125 -6.359375 L 5.234375 -1.578125 L 5.234375 -6.109375 C 5.234375 -6.222656 5.269531 -6.316406 5.34375 -6.390625 C 5.425781 -6.472656 5.523438 -6.515625 5.640625 -6.515625 Z M 5.640625 -6.515625 "/></g></g></g><g fill="#f63a4c" fill-opacity="1"><g transform="translate(51.413722, 52.672717)"><g><path d="M 1.6875 -0.453125 C 1.6875 -0.328125 1.640625 -0.21875 1.546875 -0.125 C 1.460938 -0.0390625 1.359375 0 1.234375 0 C 1.097656 0 0.984375 -0.0390625 0.890625 -0.125 C 0.804688 -0.21875 0.765625 -0.328125 0.765625 -0.453125 L 0.765625 -6.078125 C 0.765625 -6.203125 0.804688 -6.304688 0.890625 -6.390625 C 0.984375 -6.472656 1.097656 -6.515625 1.234375 -6.515625 C 1.359375 -6.515625 1.460938 -6.472656 1.546875 -6.390625 C 1.640625 -6.304688 1.6875 -6.203125 1.6875 -6.078125 Z M 1.6875 -0.453125 "/></g></g></g><g fill="#f63a4c" fill-opacity="1"><g transform="translate(55.176965, 52.672717)"><g><path d="M 5.421875 -6.140625 C 5.566406 -6.054688 5.640625 -5.929688 5.640625 -5.765625 C 5.640625 -5.648438 5.601562 -5.546875 5.53125 -5.453125 C 5.457031 -5.359375 5.351562 -5.3125 5.21875 -5.3125 C 5.132812 -5.3125 5.050781 -5.332031 4.96875 -5.375 C 4.582031 -5.59375 4.164062 -5.703125 3.71875 -5.703125 C 3.257812 -5.703125 2.847656 -5.597656 2.484375 -5.390625 C 2.128906 -5.179688 1.851562 -4.890625 1.65625 -4.515625 C 1.457031 -4.148438 1.359375 -3.734375 1.359375 -3.265625 C 1.359375 -2.742188 1.457031 -2.296875 1.65625 -1.921875 C 1.863281 -1.554688 2.144531 -1.273438 2.5 -1.078125 C 2.863281 -0.878906 3.269531 -0.78125 3.71875 -0.78125 C 4.1875 -0.78125 4.601562 -0.894531 4.96875 -1.125 C 5.039062 -1.15625 5.125 -1.171875 5.21875 -1.171875 C 5.351562 -1.171875 5.460938 -1.117188 5.546875 -1.015625 C 5.617188 -0.921875 5.65625 -0.820312 5.65625 -0.71875 C 5.65625 -0.644531 5.632812 -0.570312 5.59375 -0.5 C 5.550781 -0.4375 5.492188 -0.390625 5.421875 -0.359375 C 5.179688 -0.222656 4.910156 -0.113281 4.609375 -0.03125 C 4.304688 0.0507812 4.007812 0.09375 3.71875 0.09375 C 3.125 0.09375 2.570312 -0.0351562 2.0625 -0.296875 C 1.550781 -0.566406 1.144531 -0.957031 0.84375 -1.46875 C 0.550781 -1.976562 0.40625 -2.578125 0.40625 -3.265625 C 0.40625 -3.890625 0.546875 -4.453125 0.828125 -4.953125 C 1.117188 -5.460938 1.515625 -5.859375 2.015625 -6.140625 C 2.523438 -6.429688 3.09375 -6.578125 3.71875 -6.578125 C 4.320312 -6.578125 4.890625 -6.429688 5.421875 -6.140625 Z M 5.421875 -6.140625 "/></g></g></g></svg>